<svg width="28" height="24" viewBox="0 0 28 24" fill="none" xmlns="http://www.w3.org/2000/svg">
<g clip-path="url(#clip0_131_302)">
<rect x="1.44801" y="3.17383" width="10.3819" height="3.8752" fill="#2E3192"/>
<rect x="1.44801" y="7.82397" width="10.3819" height="3.8752" fill="#056839"/>
<rect x="1.44801" y="12.4746" width="10.3819" height="3.8752" fill="#FCB040"/>
<rect x="1.44801" y="17.1248" width="10.3819" height="3.8752" fill="#BF1E2E"/>
<path d="M13.872 21V3.36H18.36C19.8 3.36 20.936 3.504 21.768 3.792C22.616 4.08 23.24 4.448 23.64 4.896C24.056 5.344 24.328 5.816 24.456 6.312C24.584 6.808 24.648 7.272 24.648 7.704C24.648 8.168 24.576 8.656 24.432 9.168C24.304 9.664 24.08 10.128 23.76 10.56C23.44 10.976 23 11.312 22.44 11.568C23.64 11.872 24.488 12.4 24.984 13.152C25.496 13.888 25.752 14.712 25.752 15.624C25.752 16.248 25.68 16.88 25.536 17.52C25.392 18.16 25.088 18.744 24.624 19.272C24.176 19.784 23.496 20.2 22.584 20.52C21.672 20.84 20.448 21 18.912 21H13.872ZM16.512 10.848H18.792C19.624 10.848 20.264 10.712 20.712 10.44C21.16 10.152 21.472 9.784 21.648 9.336C21.84 8.888 21.936 8.416 21.936 7.92C21.936 7.504 21.84 7.128 21.648 6.792C21.472 6.44 21.144 6.16 20.664 5.952C20.2 5.744 19.536 5.64 18.672 5.64H16.512V10.848ZM16.512 18.744H19.272C20.088 18.744 20.736 18.648 21.216 18.456C21.712 18.264 22.088 18.016 22.344 17.712C22.6 17.408 22.768 17.08 22.848 16.728C22.928 16.36 22.968 16 22.968 15.648C22.968 14.816 22.688 14.168 22.128 13.704C21.568 13.224 20.688 12.984 19.488 12.984H16.512V18.744Z" fill="black"/>
</g>
<defs>
<clipPath id="clip0_131_302">
<rect width="28" height="24" fill="white"/>
</clipPath>
</defs>
</svg>
